<svg xmlns="http://www.w3.org/2000/svg" viewBox="2889 1059.3 124.7 124.7"><defs><style>.a{opacity:0.7;}</style></defs><g class="a" transform="translate(2889 1059.3)"><path d="M114.855,125.7H9.845A10.094,10.094,0,0,1,0,115.855V10.845A10.094,10.094,0,0,1,9.845,1h105.01a10.094,10.094,0,0,1,9.845,9.845V115.855A10.094,10.094,0,0,1,114.855,125.7ZM9.845,7.563a3.1,3.1,0,0,0-3.282,3.282V115.855a3.1,3.1,0,0,0,3.282,3.282h105.01a3.1,3.1,0,0,0,3.282-3.282V10.845a3.1,3.1,0,0,0-3.282-3.282Z" transform="translate(0 -1)"/><path d="M20.408,72.632H7.282A3.1,3.1,0,0,1,4,69.35V10.282A3.1,3.1,0,0,1,7.282,7H20.408a3.1,3.1,0,0,1,3.282,3.282V69.35A3.1,3.1,0,0,1,20.408,72.632Zm-9.845-6.563h6.563V13.563H10.563Z" transform="translate(22.253 32.379)"/><path d="M24.408,89.321H11.282A3.1,3.1,0,0,1,8,86.04V7.282A3.1,3.1,0,0,1,11.282,4H24.408a3.1,3.1,0,0,1,3.282,3.282V86.04A3.1,3.1,0,0,1,24.408,89.321Zm-9.845-6.563h6.563V10.563H14.563Z" transform="translate(44.505 15.689)"/><path d="M28.408,50.379H15.282A3.1,3.1,0,0,1,12,47.1V14.282A3.1,3.1,0,0,1,15.282,11H28.408a3.1,3.1,0,0,1,3.282,3.282V47.1A3.1,3.1,0,0,1,28.408,50.379Zm-9.845-6.563h6.563V17.563H18.563Z" transform="translate(66.758 54.632)"/></g></svg>