<svg xmlns="http://www.w3.org/2000/svg" viewBox="2415.7 1090.979 142.977 68.021"><defs><style>.a{opacity:0.7;}</style></defs><g class="a" transform="translate(2415.7 1090.979)"><path d="M34.689,73.5c-.753,0-2.258,0-3.01-.753l-30.1-30.1a3.637,3.637,0,0,1,0-5.268l30.1-30.1c1.505-1.505,4.515-1.505,6.02-.753s1.505,3.763,0,5.268l-27.09,27.09L37.7,65.977a3.637,3.637,0,0,1,0,5.268,2.807,2.807,0,0,1-3.01,2.258Z" transform="translate(-0.45 -5.481)"/><path d="M18.589,72.747c-.753,0-2.258,0-3.01-.753a3.637,3.637,0,0,1,0-5.268l27.09-27.09-27.09-27.09a3.637,3.637,0,0,1,0-5.268,3.637,3.637,0,0,1,5.268,0l30.1,30.1a3.637,3.637,0,0,1,0,5.268l-30.1,30.1Z" transform="translate(90.901 -4.726)"/><path d="M11.019,73.982a2.764,2.764,0,0,1-2.258-.753c-1.505-.753-2.258-3.763-1.505-5.268l37.625-60.2c.753-1.505,3.763-2.258,5.268-1.505s2.258,3.763,1.505,5.268l-37.625,60.2C13.276,73.229,12.524,73.982,11.019,73.982Z" transform="translate(42.033 -5.961)"/></g></svg>