<svg xmlns="http://www.w3.org/2000/svg" viewBox="3358.763 1059.3 105.852 108.7"><defs><style>.a{opacity:0.72;}</style></defs><g class="a" transform="translate(3358.763 1059.3)"><path d="M27.934,39.869a2.849,2.849,0,0,1-2.848-2.848A14.259,14.259,0,0,0,10.848,22.782a2.848,2.848,0,0,1,0-5.7A14.259,14.259,0,0,0,25.087,2.848a2.848,2.848,0,1,1,5.7,0A14.259,14.259,0,0,0,45.021,17.087a2.848,2.848,0,0,1,0,5.7A14.259,14.259,0,0,0,30.782,37.021,2.849,2.849,0,0,1,27.934,39.869ZM21.105,19.934a20.139,20.139,0,0,1,6.829,6.829,20.139,20.139,0,0,1,6.829-6.829,20.139,20.139,0,0,1-6.829-6.829A20.139,20.139,0,0,1,21.105,19.934Z" transform="translate(37.564)"/><path d="M8.543,24.087A2.849,2.849,0,0,1,5.7,21.239a2.849,2.849,0,0,0-2.848-2.848,2.848,2.848,0,0,1,0-5.7A2.849,2.849,0,0,0,5.7,9.848a2.848,2.848,0,1,1,5.7,0A2.849,2.849,0,0,0,14.239,12.7a2.848,2.848,0,0,1,0,5.7,2.849,2.849,0,0,0-2.848,2.848A2.849,2.849,0,0,1,8.543,24.087Z" transform="translate(0 32.869)"/><path d="M82.626,67.7,22.333,7.41a8.567,8.567,0,0,0-12.086,0L6.91,10.747a8.567,8.567,0,0,0,0,12.086L67.2,83.127a8.567,8.567,0,0,0,12.086,0l3.338-3.338a8.567,8.567,0,0,0,0-12.086ZM10.942,14.774l3.338-3.338a2.874,2.874,0,0,1,4.032,0l8.2,8.2L19.144,27l-8.2-8.2a2.85,2.85,0,0,1,0-4.027ZM78.594,75.762,75.256,79.1a2.86,2.86,0,0,1-4.021,0L23.17,31.035l7.364-7.364L78.6,71.735a2.85,2.85,0,0,1,0,4.027Z" transform="translate(20.731 23.079)"/><path d="M15.239,28.478a2.849,2.849,0,0,1-2.848-2.848,8.554,8.554,0,0,0-8.543-8.543,2.848,2.848,0,0,1,0-5.7,8.554,8.554,0,0,0,8.543-8.543,2.848,2.848,0,1,1,5.7,0,8.554,8.554,0,0,0,8.543,8.543,2.848,2.848,0,1,1,0,5.7,8.554,8.554,0,0,0-8.543,8.543A2.849,2.849,0,0,1,15.239,28.478ZM12.38,14.239A14.467,14.467,0,0,1,15.239,17.1,14.467,14.467,0,0,1,18.1,14.239a14.467,14.467,0,0,1-2.859-2.859A14.467,14.467,0,0,1,12.38,14.239Z" transform="translate(4.696)"/><path d="M15.239,38.478a2.849,2.849,0,0,1-2.848-2.848,8.554,8.554,0,0,0-8.543-8.543,2.848,2.848,0,0,1,0-5.7,8.554,8.554,0,0,0,8.543-8.543,2.848,2.848,0,0,1,5.7,0,8.554,8.554,0,0,0,8.543,8.543,2.848,2.848,0,1,1,0,5.7,8.554,8.554,0,0,0-8.543,8.543A2.849,2.849,0,0,1,15.239,38.478ZM12.38,24.239A14.467,14.467,0,0,1,15.239,27.1,14.467,14.467,0,0,1,18.1,24.239a14.467,14.467,0,0,1-2.859-2.859A14.467,14.467,0,0,1,12.38,24.239Z" transform="translate(4.696 46.956)"/></g></svg>